<svg width="326" height="96" viewBox="0 0 326 96" fill="none" xmlns="http://www.w3.org/2000/svg">
<path d="M96.9289 45.9756C104.239 45.9756 108.481 42.7367 109.564 36.2587L110.467 30.7704C110.647 29.6907 110.737 28.6111 110.737 27.5314C110.557 25.9119 109.925 24.2924 108.752 23.1228C107.398 21.5033 104.961 20.6935 101.351 20.6935H89.4381L85.0159 45.8857L96.9289 45.9756Z" fill="white"/>
<path d="M62.9948 0H18.05L32.3096 45.9756L62.9948 0Z" fill="white"/>
<path d="M136.008 19.7938L139.708 0H109.835C119.853 0 127.073 2.33927 131.315 6.92783C134.383 10.3468 135.827 14.6654 136.008 19.7938Z" fill="white"/>
<path d="M36.1905 74.1368H18.6819L9.56656 41.8369L0 96H47.1108L56.7676 41.8369L36.1905 74.1368Z" fill="white"/>
<path d="M121.116 59.6514C114.618 64.4199 106.676 66.7592 97.29 66.7592H81.4059L76.1714 95.91H121.567L130.592 48.4949C128.426 52.9935 125.177 56.7723 121.116 59.6514Z" fill="white"/>
<path d="M157.577 35.179L152.162 43.7263L154.599 52.0937H150.087L148.282 45.8857H146.386L145.303 52.0937H141.062L144.04 35.179H148.282L147.018 42.1968H148.552L153.065 35.179H157.577Z" fill="white"/>
<path d="M165.429 34.9991C169.22 34.9991 171.115 36.5286 171.115 39.5877C171.115 40.1275 171.025 40.6673 170.934 41.2971L170.122 45.9757C169.942 47.8651 169.039 49.5745 167.685 50.8341C166.151 52.0038 164.256 52.5436 162.361 52.4536C160.104 52.4536 158.48 51.9138 157.577 50.8341C156.946 49.9344 156.585 48.9447 156.675 47.8651C156.675 47.2353 156.765 46.6055 156.855 45.9757L157.668 41.2971C158.39 37.1584 161.007 34.9991 165.429 34.9991ZM162.992 48.7648C163.714 48.7648 164.346 48.5848 164.888 48.135C165.429 47.5052 165.79 46.6954 165.88 45.8857L166.693 41.3871C166.693 41.1172 166.783 40.8473 166.783 40.5773C166.873 39.6776 166.241 38.7779 165.339 38.6879C165.158 38.6879 164.978 38.6879 164.888 38.6879C163.263 38.6879 162.27 39.6776 162 41.4771L161.187 45.9757C161.097 46.3355 161.097 46.7854 161.097 47.2353C161.007 48.225 161.639 48.7648 162.992 48.7648Z" fill="white"/>
<path d="M279.145 34.9991C282.936 34.9991 284.831 36.5286 284.831 39.5877C284.831 40.1275 284.741 40.6673 284.65 41.2971L283.838 45.9757C283.658 47.8651 282.755 49.5745 281.401 50.8341C279.867 52.0038 277.972 52.5436 276.076 52.4536C273.82 52.4536 272.196 51.9138 271.293 50.8341C270.661 49.9344 270.3 48.9447 270.391 47.8651C270.391 47.2353 270.481 46.6055 270.571 45.9757L271.383 41.2971C272.105 37.1584 274.723 34.9991 279.145 34.9991ZM276.708 48.7648C277.43 48.7648 278.062 48.5848 278.603 48.135C279.145 47.5052 279.506 46.6954 279.596 45.8857L280.409 41.3871C280.499 41.1172 280.499 40.8473 280.499 40.5773C280.589 39.6776 279.957 38.7779 279.055 38.6879C278.874 38.6879 278.694 38.6879 278.603 38.6879C276.979 38.6879 275.986 39.6776 275.715 41.4771L274.903 45.9757C274.813 46.3355 274.813 46.7854 274.813 47.2353C274.723 48.225 275.354 48.7648 276.708 48.7648Z" fill="white"/>
<path d="M300.805 35.179L300.444 47.955H300.986L305.047 35.179H309.65L303.783 52.0937H296.744L297.376 41.2971L294.217 52.0937H287.177L287.358 35.179H291.961L291.509 47.955H292.051L296.202 35.179H300.805Z" fill="white"/>
<path d="M320.841 52.0937H309.018L311.996 35.179H323.819L323.187 38.8679H315.606L315.065 42.0169H321.382L320.75 45.7057H314.433L313.982 48.4949H321.563L320.841 52.0937Z" fill="white"/>
<path d="M183.931 52.0937H173.191L174.184 46.5155L172.379 47.5052L171.386 44.9859L174.815 43.1865L176.259 35.269H180.501L179.508 40.7573L182.487 39.2277L183.479 41.747L178.877 44.1762L178.155 48.4948H184.562L183.931 52.0937Z" fill="white"/>
<path d="M195.031 34.9991C198.822 34.9991 200.717 36.5286 200.717 39.5877C200.717 40.1275 200.627 40.6673 200.537 41.2971L199.724 45.9757C199.544 47.8651 198.641 49.5745 197.288 50.8341C195.753 52.0038 193.858 52.5436 191.963 52.4536C189.707 52.4536 188.082 51.9138 187.18 50.8341C186.548 49.9344 186.187 48.9447 186.277 47.8651C186.277 47.2353 186.367 46.6055 186.458 45.9757L187.27 41.2971C188.082 37.1584 190.609 34.9991 195.031 34.9991ZM192.595 48.7648C193.317 48.7648 193.948 48.5848 194.49 48.135C195.031 47.5052 195.392 46.6954 195.483 45.8857L196.295 41.3871C196.295 41.1172 196.385 40.8473 196.385 40.5773C196.475 39.6776 195.844 38.7779 194.941 38.6879C194.761 38.6879 194.67 38.6879 194.49 38.6879C192.865 38.6879 191.873 39.6776 191.602 41.4771L190.79 45.9757C190.699 46.4255 190.699 46.7854 190.699 47.2353C190.609 48.225 191.331 48.7648 192.595 48.7648Z" fill="white"/>
<path d="M223.28 35.179L220.302 52.0937H216.06L213.082 42.8266L211.457 52.0937H207.125L210.103 35.179H214.526L217.414 43.8163L218.948 35.179H223.28Z" fill="white"/>
<path d="M232.034 52.0937L232.215 48.4049H228.244L227.07 52.0937H222.558L228.605 35.179H236.366L236.456 52.0937H232.034ZM231.041 39.3177L229.146 45.2559H232.215L232.485 39.3177H231.041Z" fill="white"/>
<path d="M250.265 50.8341C248.731 52.0038 246.835 52.5436 244.94 52.3637C242.684 52.3637 241.059 51.8238 240.247 50.7442C239.615 49.9344 239.254 48.8547 239.345 47.7751C239.345 47.1453 239.435 46.5155 239.525 45.8857L241.42 35.0891H245.662L243.767 45.7957C243.677 46.1556 243.677 46.6055 243.677 47.0553C243.677 48.135 244.308 48.6748 245.662 48.6748C246.384 48.6748 247.016 48.4949 247.557 48.045C248.099 47.4152 248.46 46.6054 248.55 45.7957L250.445 35.0891H254.687L252.792 45.8857C252.521 47.8651 251.709 49.5745 250.265 50.8341Z" fill="white"/>
<path d="M271.293 35.179L265.878 43.7263L268.315 52.0937H263.802L261.997 45.8857H260.102L259.019 52.0937H254.777L257.756 35.179H261.997L260.734 42.1968H262.268L266.781 35.179H271.293Z" fill="white"/>
<path d="M166.061 73.687L166.242 69.9982H162.271L161.097 73.687H156.585L162.632 56.7723H170.393L170.483 73.687H166.061ZM165.159 60.911L163.263 66.8491H166.332L166.603 60.911H165.159Z" fill="white"/>
<path d="M144.942 56.7723L147.469 64.8697L152.884 56.7723H157.307L154.328 73.687H150.087L151.801 64.15L148.191 69.8182H145.123L143.498 64.15L141.784 73.687H137.542L140.52 56.7723H144.942Z" fill="white"/>
<path d="M188.263 60.4611H182.486L180.14 73.687H175.898L178.245 60.4611H172.378L173.01 56.7723H188.894L188.263 60.4611Z" fill="white"/>
<path d="M199.634 73.687H187.811L190.79 56.7723H202.612L201.981 60.4611H194.4L193.858 63.6101H200.176L199.544 67.299H193.226L192.775 70.0881H200.356L199.634 73.687Z" fill="white"/>
<path d="M209.832 56.7723L212.359 64.8697L217.774 56.7723H222.197L219.218 73.687H214.977L216.691 64.15L213.081 69.8182H210.013L208.388 64.15L206.674 73.687H202.432L205.32 56.7723H209.832Z" fill="white"/>
<path d="M230.951 73.687L231.132 69.9982H227.161L225.987 73.687H221.475L227.522 56.7723H235.283L235.373 73.687H230.951ZM229.958 60.911L228.063 66.8491H231.132L231.402 60.911H229.958Z" fill="white"/>
<path d="M253.153 60.4611H247.287L244.94 73.687H240.698L243.045 60.4611H237.178L237.81 56.7723H253.694L253.153 60.4611Z" fill="white"/>
<path d="M260.914 62.7104L264.885 56.7723H269.127L261.907 67.209L260.734 73.687H256.492L257.665 67.209L254.055 56.7723H258.568L260.373 62.7104H260.914Z" fill="white"/>
<path d="M284.379 56.7723L278.964 65.3196L281.401 73.687H276.889L275.084 67.4789H273.188L272.196 73.687H267.954L270.932 56.7723H275.174L273.91 63.7901H275.445L279.957 56.7723H284.379Z" fill="white"/>
<path d="M290.607 56.7723L287.628 73.687H283.387L286.365 56.7723H290.607Z" fill="white"/>
<path d="M141.874 90.1518H139.076L138.174 95.2802H133.932L136.91 78.3655H144.13C145.935 78.3655 147.199 78.8153 147.921 79.6251C148.462 80.2549 148.823 81.1546 148.733 82.0543C148.733 82.4142 148.733 82.7741 148.643 83.044L148.191 85.7432C147.921 87.0028 147.199 88.1724 146.116 88.9822C144.852 89.7919 143.408 90.2418 141.874 90.1518ZM142.596 82.0543H140.43L139.618 86.4629H141.693C142.776 86.6429 143.769 85.8331 143.95 84.7535L144.13 83.7638C144.13 83.5838 144.13 83.4039 144.13 83.224C144.13 82.954 143.95 82.6841 143.769 82.4142C143.498 82.1443 143.047 81.9644 142.596 82.0543Z" fill="white"/>
<path d="M158.751 78.3655C160.556 78.3655 161.819 78.7254 162.541 79.5351C163.083 80.1649 163.444 80.9747 163.354 81.7844C163.354 82.1443 163.354 82.4142 163.263 82.7741L162.902 84.5735C162.722 85.4733 162.451 86.283 161.91 87.0028C161.549 87.5426 161.007 87.9925 160.375 88.3524L162.541 95.1902H157.758L155.773 88.8922H154.329L153.336 95.1902H148.823L151.802 78.2755L158.751 78.3655ZM157.307 82.0543H155.592L154.96 86.1031H156.675C157.758 86.283 158.841 85.5632 159.022 84.3936C159.022 84.2137 159.022 84.0337 159.022 83.8538C158.931 82.6841 158.39 82.0543 157.307 82.0543Z" fill="white"/>
<path d="M176.259 95.2802H163.895L164.527 91.5914L173.642 81.9644H166.151L166.783 78.2755H179.238L178.606 81.9644L169.491 91.5914H176.891L176.259 95.2802Z" fill="white"/>
<path d="M190.79 95.2802H178.967L181.945 78.3655H193.768L193.136 82.0543H185.555L185.014 85.2033H191.241L190.609 88.8922H184.292L183.84 91.6813H191.421L190.79 95.2802Z" fill="white"/>
<path d="M200.988 78.3655L203.515 86.4629L208.93 78.3655H213.352L210.374 95.2802H206.132L207.847 85.7432L204.237 91.4114H201.168L199.544 85.7432L197.829 95.2802H193.587L196.566 78.3655H200.988Z" fill="white"/>
<path d="M221.926 84.3036L225.897 78.3655H230.139L222.919 88.8022L221.746 95.2802H217.504L218.677 88.8022L215.067 78.3655H219.58L221.385 84.3036H221.926Z" fill="white"/>
<path d="M232.846 90.5117C232.846 91.5914 233.659 92.1312 235.193 92.1312C236.727 92.1312 237.539 91.6813 237.539 90.6917C237.539 90.1518 237.178 89.702 236.727 89.4321C236.095 89.0722 235.464 88.8022 234.742 88.6223C234.02 88.4423 233.207 88.1724 232.485 87.8125C231.763 87.5426 231.041 87.0928 230.59 86.463C230.049 85.8332 229.778 85.0234 229.778 84.1237C229.778 80.1649 232.305 78.1855 237.359 78.2755C238.803 78.1855 240.337 78.5454 241.601 79.3552C242.503 79.985 243.045 81.0647 243.045 82.2343C243.045 82.6842 242.954 83.134 242.864 83.5839C242.774 83.9438 242.684 84.2137 242.503 84.4836L242.323 84.7535H238.171C238.532 84.3936 238.713 83.8538 238.713 83.4039C238.713 82.4142 238.081 81.8744 236.727 81.8744C235.012 81.8744 234.2 82.4142 234.2 83.4939C234.2 84.0337 234.561 84.4836 235.012 84.7535C235.644 85.1134 236.276 85.3833 236.998 85.4733C237.81 85.6532 238.532 85.9231 239.254 86.1931C239.976 86.463 240.698 86.9128 241.24 87.5426C241.781 88.2624 242.052 89.0721 242.052 89.9719C242.142 91.6813 241.51 93.3008 240.247 94.3805C239.074 95.3702 237.178 95.82 234.742 95.82C232.305 95.82 230.59 95.3702 229.688 94.4705C228.966 93.7507 228.605 92.761 228.695 91.7713C228.695 91.3214 228.785 90.7816 228.785 90.3318L228.875 89.9719H233.117V90.2418C232.937 90.2418 232.846 90.3318 232.846 90.5117Z" fill="white"/>
<path d="M255.68 95.2803H244.94L245.933 89.702L244.128 90.6917L243.135 88.1725L246.565 86.373L248.009 78.4555H252.25L251.258 83.9438L254.146 82.4143L255.138 84.9335L250.536 87.3627L249.814 91.6814H256.312L255.68 95.2803Z" fill="white"/>
<path d="M266.78 78.1855C270.571 78.1855 272.466 79.715 272.466 82.7741C272.466 83.3139 272.376 83.8538 272.286 84.4836L271.473 89.1621C271.293 91.0515 270.39 92.761 269.037 94.0206C267.502 95.1902 265.607 95.7301 263.712 95.6401C261.456 95.6401 259.831 95.1002 258.929 94.0206C258.297 93.1209 257.936 92.1312 258.026 91.0515C258.026 90.4217 258.116 89.7919 258.207 89.1621L259.019 84.4836C259.831 80.3449 262.358 78.1855 266.78 78.1855ZM264.344 91.9512C265.066 91.9512 265.697 91.7713 266.239 91.3214C266.78 90.6916 267.141 89.8819 267.232 89.0721L268.044 84.5735C268.134 84.3036 268.134 84.0337 268.134 83.7638C268.224 82.8641 267.593 81.9643 266.69 81.8744C266.51 81.8744 266.329 81.8744 266.239 81.8744C264.614 81.8744 263.622 82.8641 263.351 84.6635L262.539 89.1621C262.448 89.522 262.448 89.9718 262.448 90.4217C262.358 91.4114 263.08 91.9512 264.344 91.9512Z" fill="white"/>
<path d="M288.441 78.3655L288.08 91.1415H288.621L292.682 78.3655H297.285L291.419 95.2802H284.379L285.011 84.4836L281.852 95.2802H274.723L274.903 78.3655H279.506L279.055 91.1415H279.596L283.748 78.3655H288.441Z" fill="white"/>
<path d="M308.476 95.2802H296.654L299.632 78.3655H311.455L310.823 82.0543H303.242L302.7 85.2033H309.018L308.386 88.8922H302.159L301.708 91.6813H309.289L308.476 95.2802Z" fill="white"/>
<path d="M316.418 95.6401C312.628 95.6401 310.733 94.2905 310.733 91.5014C310.733 91.0515 310.823 90.6017 310.913 90.1518L311.184 88.4423H315.426L315.245 89.2521C315.155 89.612 315.155 90.0618 315.155 90.4217C315.155 90.7816 315.245 91.1415 315.426 91.4114C315.787 91.8613 316.418 92.0412 316.96 91.9512C317.592 91.9512 318.223 91.7713 318.765 91.4114C319.306 90.7816 319.667 90.0618 319.758 89.2521L321.653 78.3655H325.895L323.819 89.522C323.638 91.3214 322.826 92.9409 321.473 94.1106C320.119 95.1902 318.223 95.7301 316.418 95.6401Z" fill="white"/>
</svg>
