<svg width="150" height="44" viewBox="0 0 150 44" fill="none" xmlns="http://www.w3.org/2000/svg">
<g id="Component 2">
<path id="Vector" d="M44.6136 21.0721C47.9783 21.0721 49.9307 19.5876 50.4292 16.6185L50.8446 14.1031C50.9277 13.6082 50.9692 13.1134 50.9692 12.6185C50.8861 11.8762 50.5953 11.134 50.0553 10.5979C49.4322 9.85563 48.3107 9.4845 46.6491 9.4845H41.1658L39.1304 21.0309L44.6136 21.0721Z" fill="black"/>
<path id="Vector_2" d="M28.9946 0H8.30786L14.8711 21.0722L28.9946 0Z" fill="black"/>
<path id="Vector_3" d="M62.6002 9.07216L64.3034 0H50.5537C55.1646 0 58.4878 1.07216 60.4402 3.17526C61.8525 4.74227 62.5172 6.72165 62.6002 9.07216Z" fill="black"/>
<path id="Vector_4" d="M16.6574 33.9794H8.59872L4.40321 19.1753L0 44H21.6837L26.1285 19.1753L16.6574 33.9794Z" fill="black"/>
<path id="Vector_5" d="M55.7464 27.3402C52.7555 29.5258 49.1 30.5979 44.7799 30.5979H37.4689L35.0596 43.9588H55.9541L60.108 22.2268C59.1111 24.2887 57.6156 26.0206 55.7464 27.3402Z" fill="black"/>
<path id="Vector_6" d="M72.5283 16.1237L70.0359 20.0412L71.1575 23.8762H69.0805L68.2497 21.0309H67.3774L66.8789 23.8762H64.9265L66.2973 16.1237H68.2497L67.6681 19.3402H68.3743L70.4513 16.1237H72.5283Z" fill="black"/>
<path id="Vector_7" d="M76.1424 16.0413C77.887 16.0413 78.7594 16.7423 78.7594 18.1444C78.7594 18.3918 78.7178 18.6392 78.6763 18.9279L78.3024 21.0722C78.2193 21.9382 77.8039 22.7217 77.1809 23.299C76.4747 23.8351 75.6023 24.0825 74.73 24.0413C73.6915 24.0413 72.9438 23.7938 72.5284 23.299C72.2376 22.8866 72.0715 22.433 72.113 21.9382C72.113 21.6495 72.1545 21.3608 72.1961 21.0722L72.5699 18.9279C72.9023 17.031 74.1069 16.0413 76.1424 16.0413ZM75.0208 22.3505C75.3531 22.3505 75.6439 22.2681 75.8931 22.0619C76.1424 21.7732 76.3085 21.4021 76.3501 21.031L76.7239 18.9691C76.7239 18.8454 76.7655 18.7217 76.7655 18.598C76.807 18.1856 76.5162 17.7732 76.1008 17.732C76.0177 17.732 75.9347 17.732 75.8931 17.732C75.1454 17.732 74.6885 18.1856 74.5638 19.0103L74.19 21.0722C74.1485 21.2371 74.1484 21.4433 74.1484 21.6495C74.1069 22.1031 74.3977 22.3505 75.0208 22.3505Z" fill="black"/>
<path id="Vector_8" d="M128.482 16.0413C130.227 16.0413 131.099 16.7423 131.099 18.1444C131.099 18.3918 131.058 18.6392 131.016 18.9279L130.643 21.0722C130.559 21.9382 130.144 22.7217 129.521 23.299C128.815 23.8351 127.942 24.0825 127.07 24.0413C126.032 24.0413 125.284 23.7938 124.868 23.299C124.578 22.8866 124.412 22.433 124.453 21.9382C124.453 21.6495 124.495 21.3608 124.536 21.0722L124.91 18.9279C125.242 17.031 126.447 16.0413 128.482 16.0413ZM127.361 22.3505C127.693 22.3505 127.984 22.2681 128.233 22.0619C128.482 21.7732 128.649 21.4021 128.69 21.031L129.064 18.9691C129.106 18.8454 129.106 18.7217 129.106 18.598C129.147 18.1856 128.856 17.7732 128.441 17.732C128.358 17.732 128.275 17.732 128.233 17.732C127.485 17.732 127.029 18.1856 126.904 19.0103L126.53 21.0722C126.489 21.2371 126.489 21.4433 126.489 21.6495C126.447 22.1031 126.738 22.3505 127.361 22.3505Z" fill="black"/>
<path id="Vector_9" d="M138.452 16.1237L138.286 21.9793H138.535L140.404 16.1237H142.523L139.823 23.8762H136.583L136.873 18.9278L135.42 23.8762H132.179L132.263 16.1237H134.381L134.173 21.9793H134.423L136.333 16.1237H138.452Z" fill="black"/>
<path id="Vector_10" d="M147.674 23.8762H142.232L143.603 16.1237H149.044L148.754 17.8144H145.264L145.015 19.2577H147.923L147.632 20.9484H144.724L144.517 22.2268H148.006L147.674 23.8762Z" fill="black"/>
<path id="Vector_11" d="M84.6581 23.8763H79.7148L80.1718 21.3196L79.341 21.7732L78.884 20.6185L80.4625 19.7938L81.1272 16.1649H83.0795L82.6226 18.6804L83.9934 17.9793L84.4504 19.134L82.3318 20.2474L81.9995 22.2268H84.9488L84.6581 23.8763Z" fill="black"/>
<path id="Vector_12" d="M89.7674 16.0413C91.512 16.0413 92.3844 16.7423 92.3844 18.1444C92.3844 18.3918 92.3428 18.6392 92.3013 18.9279L91.9274 21.0722C91.8443 21.9382 91.429 22.7217 90.8059 23.299C90.0997 23.8351 89.2273 24.0825 88.355 24.0413C87.3165 24.0413 86.5688 23.7938 86.1534 23.299C85.8626 22.8866 85.6965 22.433 85.738 21.9382C85.738 21.6495 85.7796 21.3608 85.8211 21.0722L86.1949 18.9279C86.5688 17.031 87.7319 16.0413 89.7674 16.0413ZM88.6458 22.3505C88.9781 22.3505 89.2689 22.2681 89.5181 22.0619C89.7674 21.7732 89.9335 21.4021 89.9751 21.031L90.3489 18.9691C90.3489 18.8454 90.3905 18.7217 90.3905 18.598C90.432 18.1856 90.1412 17.7732 89.7258 17.732C89.6427 17.732 89.6012 17.732 89.5181 17.732C88.7704 17.732 88.3135 18.1856 88.1889 19.0103L87.815 21.0722C87.7735 21.2784 87.7735 21.4433 87.7735 21.6495C87.7319 22.1031 88.0642 22.3505 88.6458 22.3505Z" fill="black"/>
<path id="Vector_13" d="M102.769 16.1237L101.399 23.8762H99.4462L98.0754 19.6288L97.3276 23.8762H95.3337L96.7046 16.1237H98.74L100.069 20.0824L100.775 16.1237H102.769Z" fill="black"/>
<path id="Vector_14" d="M106.799 23.8762L106.882 22.1855H105.054L104.514 23.8762H102.437L105.22 16.1237H108.793L108.834 23.8762H106.799ZM106.342 18.0206L105.469 20.7422H106.882L107.006 18.0206H106.342Z" fill="black"/>
<path id="Vector_15" d="M115.19 23.299C114.483 23.8351 113.611 24.0825 112.739 24C111.7 24 110.953 23.7526 110.579 23.2578C110.288 22.8866 110.122 22.3918 110.163 21.8969C110.163 21.6083 110.205 21.3196 110.246 21.031L111.119 16.0825H113.071L112.199 20.9897C112.157 21.1547 112.157 21.3609 112.157 21.5671C112.157 22.0619 112.448 22.3093 113.071 22.3093C113.403 22.3093 113.694 22.2268 113.943 22.0207C114.193 21.732 114.359 21.3609 114.4 20.9897L115.273 16.0825H117.225L116.353 21.031C116.228 21.9382 115.854 22.7217 115.19 23.299Z" fill="black"/>
<path id="Vector_16" d="M124.868 16.1237L122.376 20.0412L123.498 23.8762H121.421L120.59 21.0309H119.717L119.219 23.8762H117.267L118.637 16.1237H120.59L120.008 19.3402H120.714L122.791 16.1237H124.868Z" fill="black"/>
<path id="Vector_17" d="M76.4332 33.7732L76.5163 32.0825H74.6885L74.1485 33.7732H72.0715L74.8547 26.0206H78.4271L78.4687 33.7732H76.4332ZM76.0178 27.9175L75.1455 30.6392H76.5578L76.6824 27.9175H76.0178Z" fill="black"/>
<path id="Vector_18" d="M66.7129 26.0206L67.876 29.732L70.3684 26.0206H72.4039L71.033 33.7732H69.0807L69.8699 29.4021L68.2083 32H66.796L66.0483 29.4021L65.259 33.7732H63.3066L64.6775 26.0206H66.7129Z" fill="black"/>
<path id="Vector_19" d="M86.6518 27.7114H83.9933L82.9132 33.7732H80.9609L82.0409 27.7114H79.3408L79.6316 26.0206H86.9426L86.6518 27.7114Z" fill="black"/>
<path id="Vector_20" d="M91.8858 33.7732H86.4441L87.8149 26.0206H93.2566L92.9658 27.7114H89.4765L89.2273 29.1547H92.135L91.8443 30.8454H88.9365L88.7288 32.1237H92.2181L91.8858 33.7732Z" fill="black"/>
<path id="Vector_21" d="M96.5798 26.0206L97.743 29.732L100.235 26.0206H102.271L100.9 33.7732H98.9476L99.7369 29.4021L98.0753 32H96.6629L95.9152 29.4021L95.126 33.7732H93.1736L94.5029 26.0206H96.5798Z" fill="black"/>
<path id="Vector_22" d="M106.3 33.7732L106.383 32.0825H104.555L104.015 33.7732H101.938L104.722 26.0206H108.294L108.336 33.7732H106.3ZM105.843 27.9175L104.971 30.6392H106.383L106.508 27.9175H105.843Z" fill="black"/>
<path id="Vector_23" d="M116.519 27.7114H113.819L112.739 33.7732H110.787L111.867 27.7114H109.167L109.457 26.0206H116.768L116.519 27.7114Z" fill="black"/>
<path id="Vector_24" d="M120.091 28.7423L121.919 26.0206H123.871L120.548 30.8041L120.008 33.7732H118.056L118.596 30.8041L116.934 26.0206H119.011L119.842 28.7423H120.091Z" fill="black"/>
<path id="Vector_25" d="M130.892 26.0206L128.399 29.9382L129.521 33.7732H127.444L126.613 30.9278H125.741L125.284 33.7732H123.332L124.702 26.0206H126.655L126.073 29.2371H126.779L128.856 26.0206H130.892Z" fill="black"/>
<path id="Vector_26" d="M133.758 26.0206L132.387 33.7732H130.435L131.806 26.0206H133.758Z" fill="black"/>
<path id="Vector_27" d="M65.3005 41.3195H64.0128L63.5974 43.6701H61.645L63.0158 35.9175H66.339C67.1698 35.9175 67.7514 36.1237 68.0837 36.4948C68.3329 36.7835 68.4991 37.1958 68.4575 37.6082C68.4575 37.7732 68.4575 37.9381 68.416 38.0618L68.2083 39.2989C68.0837 39.8762 67.7514 40.4123 67.2529 40.7835C66.6713 41.1546 66.0067 41.3608 65.3005 41.3195ZM65.6328 37.6082H64.6359L64.262 39.6288H65.2174C65.7159 39.7113 66.1729 39.3402 66.2559 38.8453L66.339 38.3917C66.339 38.3092 66.339 38.2268 66.339 38.1443C66.339 38.0206 66.2559 37.8969 66.1729 37.7731C66.0482 37.6494 65.8405 37.567 65.6328 37.6082Z" fill="black"/>
<path id="Vector_28" d="M73.0684 35.9175C73.8992 35.9175 74.4807 36.0824 74.8131 36.4536C75.0623 36.7422 75.2285 37.1133 75.1869 37.4845C75.1869 37.6494 75.1869 37.7731 75.1454 37.9381L74.9792 38.7628C74.8961 39.1752 74.7715 39.5463 74.5223 39.8762C74.3561 40.1236 74.1069 40.3298 73.8161 40.4948L74.8131 43.6288H72.6115L71.6976 40.7422H71.0329L70.576 43.6288H68.499L69.8698 35.8762L73.0684 35.9175ZM72.4038 37.6082H71.6145L71.3237 39.4639H72.113C72.6115 39.5463 73.1099 39.2164 73.193 38.6804C73.193 38.5979 73.193 38.5154 73.193 38.4329C73.1515 37.8968 72.9022 37.6082 72.4038 37.6082Z" fill="black"/>
<path id="Vector_29" d="M81.127 43.67H75.436L75.7268 41.9793L79.9223 37.5669H76.4745L76.7653 35.8762H82.4978L82.207 37.5669L78.0115 41.9793H81.4178L81.127 43.67Z" fill="black"/>
<path id="Vector_30" d="M87.815 43.6701H82.3733L83.7441 35.9175H89.1858L88.895 37.6082H85.4057L85.1565 39.0515H88.0227L87.7319 40.7422H84.8241L84.6164 42.0206H88.1058L87.815 43.6701Z" fill="black"/>
<path id="Vector_31" d="M92.509 35.9175L93.6722 39.6288L96.1645 35.9175H98.2L96.8292 43.6701H94.8768L95.6661 39.2989L94.0045 41.8969H92.5921L91.8444 39.2989L91.0551 43.6701H89.1028L90.4736 35.9175H92.509Z" fill="black"/>
<path id="Vector_32" d="M102.146 38.6391L103.974 35.9175H105.926L102.603 40.701L102.063 43.6701H100.111L100.651 40.701L98.9893 35.9175H101.066L101.897 38.6391H102.146Z" fill="black"/>
<path id="Vector_33" d="M107.172 41.4846C107.172 41.9794 107.546 42.2268 108.253 42.2268C108.959 42.2268 109.333 42.0206 109.333 41.567C109.333 41.3196 109.166 41.1134 108.959 40.9897C108.668 40.8248 108.377 40.701 108.045 40.6186C107.712 40.5361 107.339 40.4124 107.006 40.2474C106.674 40.1237 106.342 39.9175 106.134 39.6289C105.885 39.3402 105.76 38.9691 105.76 38.5567C105.76 36.7423 106.923 35.8351 109.249 35.8763C109.914 35.8351 110.62 36 111.202 36.3712C111.617 36.6598 111.866 37.1547 111.866 37.6907C111.866 37.8969 111.825 38.1031 111.783 38.3093C111.742 38.4743 111.7 38.598 111.617 38.7217L111.534 38.8454H109.623C109.789 38.6804 109.873 38.433 109.873 38.2268C109.873 37.7732 109.582 37.5258 108.959 37.5258C108.169 37.5258 107.796 37.7732 107.796 38.2681C107.796 38.5155 107.962 38.7217 108.169 38.8454C108.46 39.0103 108.751 39.134 109.083 39.1753C109.457 39.2577 109.789 39.3815 110.122 39.5052C110.454 39.6289 110.786 39.8351 111.036 40.1237C111.285 40.4536 111.41 40.8248 111.41 41.2371C111.451 42.0206 111.16 42.7629 110.579 43.2578C110.039 43.7114 109.166 43.9175 108.045 43.9175C106.923 43.9175 106.134 43.7114 105.719 43.299C105.386 42.9691 105.22 42.5155 105.262 42.0619C105.262 41.8557 105.303 41.6083 105.303 41.4021L105.345 41.2371H107.297V41.3608C107.214 41.3608 107.172 41.4021 107.172 41.4846Z" fill="black"/>
<path id="Vector_34" d="M117.682 43.6701H112.739L113.196 41.1134L112.365 41.567L111.908 40.4123L113.486 39.5876L114.151 35.9587H116.103L115.647 38.4742L116.976 37.7732L117.433 38.9278L115.314 40.0412L114.982 42.0206H117.973L117.682 43.6701Z" fill="black"/>
<path id="Vector_35" d="M122.792 35.8351C124.536 35.8351 125.409 36.5361 125.409 37.9382C125.409 38.1856 125.367 38.433 125.325 38.7217L124.952 40.866C124.869 41.732 124.453 42.5155 123.83 43.0928C123.124 43.6289 122.252 43.8763 121.379 43.8351C120.341 43.8351 119.593 43.5876 119.178 43.0928C118.887 42.6804 118.721 42.2268 118.762 41.732C118.762 41.4433 118.804 41.1547 118.845 40.866L119.219 38.7217C119.593 36.8248 120.756 35.8351 122.792 35.8351ZM121.67 42.1444C122.002 42.1444 122.293 42.0619 122.542 41.8557C122.792 41.567 122.958 41.1959 122.999 40.8248L123.373 38.7629C123.415 38.6392 123.415 38.5155 123.415 38.3918C123.456 37.9794 123.165 37.567 122.75 37.5258C122.667 37.5258 122.584 37.5258 122.542 37.5258C121.795 37.5258 121.338 37.9794 121.213 38.8041L120.839 40.866C120.798 41.031 120.798 41.2371 120.798 41.4433C120.756 41.8969 121.088 42.1444 121.67 42.1444Z" fill="black"/>
<path id="Vector_36" d="M132.761 35.9175L132.595 41.7732H132.844L134.713 35.9175H136.832L134.132 43.6701H130.892L131.183 38.7216L129.729 43.6701H126.447L126.53 35.9175H128.649L128.441 41.7732H128.69L130.601 35.9175H132.761Z" fill="black"/>
<path id="Vector_37" d="M141.983 43.6701H136.541L137.912 35.9175H143.354L143.063 37.6082H139.573L139.324 39.0515H142.232L141.941 40.7422H139.075L138.867 42.0206H142.357L141.983 43.6701Z" fill="black"/>
<path id="Vector_38" d="M145.638 43.835C143.894 43.835 143.021 43.2165 143.021 41.9381C143.021 41.7319 143.063 41.5257 143.104 41.3195L143.229 40.536H145.181L145.098 40.9072C145.057 41.0721 145.057 41.2783 145.057 41.4432C145.057 41.6082 145.098 41.7731 145.181 41.8969C145.347 42.103 145.638 42.1855 145.887 42.1443C146.178 42.1443 146.469 42.0618 146.718 41.8969C146.968 41.6082 147.134 41.2783 147.175 40.9072L148.048 35.9175H150L149.045 41.0309C148.961 41.8556 148.588 42.5979 147.964 43.134C147.341 43.6288 146.469 43.8762 145.638 43.835Z" fill="black"/>
</g>
</svg>
